<svg width="16" height="16" viewBox="0 0 16 16" fill="none" xmlns="http://www.w3.org/2000/svg">
<path d="M13.7125 8.79044C13.7125 8.93064 13.6572 9.06506 13.5589 9.16416C13.4605 9.26327 13.3272 9.31899 13.1881 9.31899C13.0491 9.31899 12.9157 9.26327 12.8174 9.16416C12.719 9.06506 12.6638 8.93064 12.6638 8.79044V4.06887C12.6638 3.92871 12.719 3.79428 12.8174 3.69517C12.9157 3.59605 13.0491 3.54037 13.1881 3.54037C13.3272 3.54037 13.4605 3.59605 13.5589 3.69517C13.6572 3.79428 13.7125 3.92871 13.7125 4.06887V8.79044ZM13.5305 12.062C13.4612 12.1318 11.5112 13.7697 7.93612 13.7697C4.36116 13.7697 2.42416 12.1406 2.34183 12.0706C2.28994 12.0266 2.2472 11.9726 2.21606 11.9118C2.18492 11.851 2.16599 11.7846 2.16035 11.7164C2.15471 11.6483 2.16249 11.5797 2.18322 11.5145C2.20395 11.4494 2.23723 11.389 2.28116 11.3369C2.37166 11.2313 2.49989 11.1662 2.63789 11.1555C2.77589 11.1449 2.91246 11.1897 3.01783 11.2801C3.04816 11.302 4.79016 12.7258 7.93185 12.7258C11.0735 12.7258 12.8285 11.2932 12.8458 11.2801C12.9523 11.1904 13.0894 11.1462 13.2277 11.1569C13.3661 11.1675 13.4949 11.232 13.5868 11.3369C13.6752 11.4409 13.7194 11.5758 13.7096 11.7124C13.6998 11.8489 13.637 11.9762 13.5348 12.0663L13.5305 12.062ZM2.15549 4.06887C2.16333 3.92827 2.22607 3.79649 2.33001 3.70238C2.43394 3.60825 2.57062 3.55943 2.71016 3.56658C2.83952 3.57398 2.96158 3.6294 3.0528 3.72216C3.14403 3.81491 3.19794 3.93842 3.20416 4.06887V8.78175C3.20416 8.92189 3.14892 9.0563 3.05058 9.1554C2.95225 9.25458 2.81889 9.31023 2.67983 9.31023C2.54076 9.31023 2.4074 9.25458 2.30907 9.1554C2.21074 9.0563 2.15549 8.92189 2.15549 8.78175V4.06887ZM4.78582 3.0206C4.79366 2.87999 4.8564 2.74822 4.96034 2.65411C5.06427 2.55998 5.20095 2.51116 5.34049 2.51831C5.46985 2.52571 5.59191 2.58113 5.68314 2.67389C5.77435 2.76664 5.82827 2.89015 5.83449 3.0206V10.0091C5.83449 10.1493 5.77925 10.2837 5.68091 10.3828C5.58258 10.4819 5.44922 10.5375 5.31016 10.5375C5.17109 10.5375 5.03773 10.4819 4.9394 10.3828C4.84107 10.2837 4.78582 10.1493 4.78582 10.0091V3.0206ZM7.42916 2.75853C7.42916 2.61837 7.4844 2.48394 7.58274 2.38483C7.68109 2.28571 7.8144 2.23003 7.9535 2.23003C8.09254 2.23003 8.22591 2.28571 8.32426 2.38483C8.4226 2.48394 8.47785 2.61837 8.47785 2.75853V10.3585C8.47785 10.4986 8.4226 10.6331 8.32426 10.7322C8.22591 10.8313 8.09254 10.887 7.9535 10.887C7.8144 10.887 7.68109 10.8313 7.58274 10.7322C7.4844 10.6331 7.42916 10.4986 7.42916 10.3585V2.75853ZM10.0292 3.0206C10.0292 2.88044 10.0844 2.74601 10.1827 2.64689C10.281 2.54778 10.4144 2.4921 10.5535 2.4921C10.6925 2.4921 10.8259 2.54778 10.9243 2.64689C11.0225 2.74601 11.0778 2.88044 11.0778 3.0206V10.0091C11.0778 10.1493 11.0225 10.2837 10.9243 10.3828C10.8259 10.4819 10.6925 10.5375 10.5535 10.5375C10.4144 10.5375 10.281 10.4819 10.1827 10.3828C10.0844 10.2837 10.0292 10.1493 10.0292 10.0091V3.0206ZM13.8555 0.137861H2.03416C1.77658 0.136135 1.5212 0.185638 1.28263 0.283533C1.04405 0.381429 0.826977 0.525797 0.643833 0.708368C0.460689 0.890942 0.315071 1.10813 0.215318 1.34751C0.115565 1.58688 0.0636341 1.84373 0.0625 2.10337V13.8964C0.0636341 14.156 0.115565 14.4129 0.215318 14.6523C0.315071 14.8916 0.460689 15.1089 0.643833 15.2914C0.826977 15.474 1.04405 15.6184 1.28263 15.7162C1.5212 15.8142 1.77658 15.8636 2.03416 15.8619H13.8555C14.1127 15.8636 14.3677 15.8143 14.606 15.7166C14.8443 15.6191 15.0612 15.4751 15.2443 15.2929C15.4274 15.1109 15.5731 14.8942 15.6731 14.6553C15.7731 14.4164 15.8254 14.16 15.8272 13.9008V2.10337C15.826 1.84411 15.7742 1.58761 15.6747 1.34852C15.5752 1.10943 15.43 0.892438 15.2473 0.70992C15.0647 0.527406 14.8481 0.382947 14.61 0.284793C14.3719 0.186639 14.117 0.136711 13.8598 0.137861" fill="#081D34"/>
</svg>
