
<svg width="68" height="12" viewBox="0 0 68 12" fill="none" xmlns="http://www.w3.org/2000/svg">
<path d="M55.2822 11.5553C55.6581 11.3569 55.9245 11.2055 56.0811 11.101C56.2378 10.9966 56.3788 10.8504 56.5041 10.6624C56.6294 10.464 56.6921 10.2185 56.6921 9.9261V2.0932C56.6921 1.80078 56.6294 1.55535 56.5041 1.35691C56.3892 1.15848 56.2482 1.00704 56.0811 0.902605C55.9245 0.787722 55.6634 0.631065 55.2978 0.432631V0.150646H57.8983L64.6503 8.6415V2.0932C64.6503 1.79033 64.5824 1.5449 64.4467 1.35691C64.3109 1.15848 64.1438 1.00704 63.9453 0.902605C63.7574 0.798166 63.4963 0.678062 63.1621 0.542292C63.0054 0.490072 62.9062 0.453519 62.8644 0.432631V0.150646H67.2665V0.432631C66.901 0.631065 66.6399 0.782501 66.4832 0.886939C66.3265 0.980934 66.1855 1.12715 66.0602 1.32558C65.9349 1.51357 65.8722 1.74856 65.8722 2.03054V11.9157H65.2299L57.9297 2.71984V9.86344C57.9297 10.1663 57.9923 10.417 58.1177 10.6154C58.243 10.8034 58.3997 10.9548 58.5876 11.0697C58.7756 11.1741 59.0315 11.289 59.3553 11.4143L59.6999 11.5553V11.8373H55.2822V11.5553Z" fill="black"/>
<path d="M43.716 11.5457C44.0607 11.3786 44.3166 11.2428 44.4837 11.1384C44.6612 11.0235 44.8127 10.8721 44.938 10.6841C45.0633 10.4961 45.126 10.2559 45.126 9.96346V2.03657C45.126 1.74414 45.0633 1.50394 44.938 1.31595C44.8127 1.11751 44.6717 0.971298 44.515 0.877304C44.3583 0.772865 44.092 0.626651 43.716 0.438662V0.156677H48.2748C49.361 0.156677 50.2957 0.386442 51.079 0.845973C51.8727 1.29506 52.2696 2.02613 52.2696 3.03918C52.2696 3.71803 52.0294 4.32378 51.5489 4.85641C51.079 5.38905 50.4993 5.77547 49.81 6.01568L52.4106 9.82247C52.9119 10.5222 53.5489 11.0966 54.3218 11.5457V11.8277H52.4576C52.0189 11.8277 51.6795 11.6449 51.4393 11.2794L48.3531 6.48566H46.7082V9.97913C46.7082 10.3551 46.8022 10.6423 46.9902 10.8407C47.1782 11.0287 47.4758 11.2324 47.8831 11.4517L48.0555 11.5457V11.8277H43.716V11.5457ZM46.7082 5.51438H47.9615C48.421 5.51438 48.8492 5.42561 49.2461 5.24806C49.6429 5.07051 49.9615 4.81464 50.2017 4.48044C50.4419 4.13579 50.562 3.72848 50.562 3.2585C50.562 2.54832 50.2957 2.01568 49.763 1.66059C49.2408 1.3055 48.609 1.12796 47.8675 1.12796H46.7082V5.51438Z" fill="black"/>
<path d="M36.7683 12C35.2852 12 34.1468 11.5927 33.3531 10.7781C32.5594 9.95302 32.1625 8.79897 32.1625 7.31594V2.1149C32.1625 1.80159 32.0999 1.54571 31.9745 1.34728C31.8596 1.14884 31.7082 0.992187 31.5202 0.877304C31.3427 0.762422 31.0868 0.62143 30.7526 0.454328V0.172344H35.1703V0.454328C34.6899 0.673649 34.3348 0.898192 34.1051 1.12796C33.8753 1.34728 33.7604 1.67626 33.7604 2.1149V7.04962C33.7604 9.67103 34.9092 10.9817 37.2069 10.9817C38.1782 10.9817 38.904 10.6789 39.3844 10.0731C39.8753 9.45693 40.1207 8.65276 40.1207 7.66059V2.19323C40.1207 1.83814 40.0372 1.55615 39.8701 1.34728C39.7134 1.12796 39.5202 0.966077 39.2904 0.861638C39.0711 0.746756 38.7526 0.610986 38.3348 0.454328V0.172344H42.7369V0.454328L42.4863 0.579654C42.2669 0.694537 42.0894 0.798976 41.9536 0.892971C41.8179 0.986965 41.6978 1.11229 41.5933 1.26895C41.4367 1.5196 41.3583 1.80159 41.3583 2.1149V7.31594C41.3583 8.79897 40.9615 9.95302 40.1677 10.7781C39.3844 11.5927 38.2513 12 36.7683 12Z" fill="black"/>
<path d="M22.0165 11.6903C22.4656 11.5232 22.7945 11.3927 23.0034 11.2987C23.2123 11.1942 23.3951 11.0376 23.5517 10.8287C23.7188 10.6094 23.8024 10.3274 23.8024 9.98274V1.27256H21.8598C21.5674 1.27256 21.3063 1.35089 21.0765 1.50754C20.8468 1.65376 20.664 1.86263 20.5282 2.13418L19.7136 3.87308H19.4316V0.301277H29.7554V3.87308H29.4734L28.6744 2.13418C28.5595 1.87308 28.3768 1.6642 28.1261 1.50754C27.8859 1.35089 27.6196 1.27256 27.3272 1.27256H25.3846V9.98274C25.3846 10.3274 25.4629 10.6094 25.6196 10.8287C25.7867 11.0376 25.9695 11.1942 26.1679 11.2987C26.3768 11.3927 26.7058 11.5232 27.1548 11.6903V11.9723H22.0165V11.6903Z" fill="black"/>
<path d="M8.32835 11.5457C8.66255 11.3682 8.97064 11.1175 9.25263 10.7937C9.54506 10.47 9.56518 10.4314 9.92626 9.77547L15.49 0.0783424H17.1018L17.8611 8.40715C17.9381 9.2524 18.0934 10.1224 18.6509 10.7624C18.7927 11.0862 19.1269 11.3473 19.5029 11.5457V11.8277H15.493V11.5457C15.7959 11.4308 15.8428 11.3686 15.9788 11.1875C16.1203 10.9992 16.1203 10.7581 16.1203 10.4343C16.1203 10.2046 16.1203 9.68117 16.1203 9.30459C16.1203 8.96566 16.1203 8.85269 16.1203 8.40079V7.66058H11.9628L11.7592 8.16189C11.3414 9.09139 11.1325 9.72325 11.1325 10.0575C11.1325 10.3917 11.2213 10.6893 11.3988 10.9504C11.5868 11.2115 11.8323 11.4099 12.1351 11.5457V11.8277H8.32835V11.5457ZM16.1203 6.68931L15.8659 0.567898L12.4454 6.68931H16.1203Z" fill="black"/>
<path d="M3.60313 12C2.95561 12 2.4282 11.9478 2.02089 11.8433C1.62402 11.7493 1.0705 11.5718 0.360313 11.3107L0 11.1697V8.30287H0.281984L0.485639 8.72584C0.715404 9.22715 0.908616 9.61357 1.06527 9.88511C1.22193 10.1462 1.43603 10.3812 1.70757 10.5901C1.98956 10.799 2.35509 10.9608 2.80418 11.0757C3.07572 11.1384 3.34204 11.1697 3.60313 11.1697C4.27154 11.1697 4.80417 10.9974 5.20104 10.6527C5.60835 10.3081 5.81201 9.80678 5.81201 9.14882C5.81201 8.61618 5.69713 8.20887 5.46736 7.92689C5.24804 7.6449 4.97128 7.4047 4.63707 7.20626C4.30287 7.00783 3.84856 6.77284 3.27415 6.5013C2.62663 6.19843 2.10966 5.92689 1.72324 5.68668C1.33681 5.44647 1.00783 5.12794 0.736292 4.73107C0.475196 4.32376 0.344647 3.82245 0.344647 3.22715C0.344647 2.66318 0.516971 2.13577 0.861618 1.64491C1.21671 1.1436 1.67102 0.746737 2.22454 0.454309C2.77807 0.151436 3.33159 0 3.88512 0C4.46997 0 4.98694 0.0678851 5.43603 0.203655C5.89556 0.328982 6.40731 0.543081 6.97128 0.845953V3.5718H6.68929C6.39686 2.8825 6.15143 2.37076 5.953 2.03655C5.76501 1.70235 5.49347 1.42037 5.13838 1.1906C4.78329 0.960836 4.31854 0.845953 3.74412 0.845953C3.22193 0.845953 2.79373 1.0235 2.45953 1.37859C2.12533 1.72324 1.95822 2.15666 1.95822 2.67885C1.95822 3.10705 2.06788 3.47781 2.28721 3.79112C2.50653 4.09399 2.77807 4.34465 3.10183 4.54308C3.42559 4.74151 3.86423 4.9765 4.41775 5.24804C5.06527 5.56136 5.57702 5.84334 5.953 6.09399C6.33942 6.34464 6.6684 6.67885 6.93994 7.0966C7.21148 7.51436 7.34725 8.03133 7.34725 8.64752C7.34725 9.29503 7.16971 9.87467 6.81462 10.3864C6.45953 10.8982 5.99477 11.295 5.42036 11.577C4.84595 11.859 4.24021 12 3.60313 12Z" fill="black"/>
</svg>
